<svg version="1.1" id="Layer_1" xmlns="http://www.w3.org/2000/svg" xmlns:xlink="http://www.w3.org/1999/xlink" x="0px" y="0px"
	 width="100%" viewBox="0 0 1000 750" enable-background="new 0 0 1000 750" xml:space="preserve">
<path fill="#FFFFFF" opacity="1.000000" stroke="none" 
	d="
M592.000000,751.000000 
	C394.666656,751.000000 197.833328,751.000000 1.000000,751.000000 
	C1.000000,501.000000 1.000000,251.000000 1.000000,1.000000 
	C334.333344,1.000000 667.666687,1.000000 1001.000000,1.000000 
	C1001.000000,251.000000 1001.000000,501.000000 1001.000000,751.000000 
	C864.833313,751.000000 728.666687,751.000000 592.000000,751.000000 
M901.974731,352.520874 
	C897.143372,310.277069 882.014587,271.971466 857.474426,237.386841 
	C824.868469,191.435074 781.599426,158.320282 731.248352,134.090424 
	C662.123047,100.826126 588.377075,87.347420 512.372498,84.029556 
	C484.467163,82.811378 456.829407,85.958626 429.267883,89.881012 
	C381.897278,96.622482 336.099121,108.946426 292.576508,129.043594 
	C239.198013,153.691833 193.104050,187.705170 158.439392,235.791962 
	C121.344551,287.249939 104.624100,344.604553 111.244507,408.011597 
	C115.916138,452.754181 132.797424,492.903961 159.641342,528.874573 
	C192.998260,573.572510 236.222458,606.149109 286.612488,628.949158 
	C371.048431,667.153931 459.715607,682.689148 552.213562,675.104309 
	C594.497314,671.637085 635.896484,663.484375 676.166504,650.001953 
	C732.361938,631.187805 783.212830,603.236145 825.045776,560.644958 
	C881.524292,503.142548 909.472473,434.798889 901.974731,352.520874 
z"/>
<path fill="#E63947" opacity="1.000000" stroke="none" 
	d="
M901.996155,352.974243 
	C909.472473,434.798889 881.524292,503.142548 825.045776,560.644958 
	C783.212830,603.236145 732.361938,631.187805 676.166504,650.001953 
	C635.896484,663.484375 594.497314,671.637085 552.213562,675.104309 
	C459.715607,682.689148 371.048431,667.153931 286.612488,628.949158 
	C236.222458,606.149109 192.998260,573.572510 159.641342,528.874573 
	C132.797424,492.903961 115.916138,452.754181 111.244507,408.011597 
	C104.624100,344.604553 121.344551,287.249939 158.439392,235.791962 
	C193.104050,187.705170 239.198013,153.691833 292.576508,129.043594 
	C336.099121,108.946426 381.897278,96.622482 429.267883,89.881012 
	C456.829407,85.958626 484.467163,82.811378 512.372498,84.029556 
	C588.377075,87.347420 662.123047,100.826126 731.248352,134.090424 
	C781.599426,158.320282 824.868469,191.435074 857.474426,237.386841 
	C882.014587,271.971466 897.143372,310.277069 901.996155,352.974243 
M877.100708,422.601807 
	C880.575439,405.926636 881.733704,389.092224 881.274475,372.061005 
	C880.454773,341.655304 873.268127,312.851440 860.267700,285.453094 
	C839.048279,240.733063 806.172852,206.274155 765.536987,178.847794 
	C722.042358,149.491913 673.902344,130.966858 622.845520,120.207481 
	C598.020264,114.975975 572.775269,111.503532 547.581909,108.334679 
	C531.282227,106.284485 514.641296,104.670982 498.314545,105.624191 
	C471.150726,107.210106 443.960724,109.995705 417.061493,114.106560 
	C367.873779,121.623642 320.983398,136.769638 277.267090,160.902481 
	C228.610260,187.762695 188.299973,223.517776 161.046783,272.572083 
	C133.095612,322.882721 124.306931,376.300140 137.830170,432.604767 
	C151.165863,488.128510 183.072983,531.654480 227.024887,566.930969 
	C260.907990,594.125977 299.199402,613.198303 340.178528,627.134155 
	C369.685669,637.168701 399.858582,644.807678 430.734131,648.691406 
	C457.910950,652.109802 485.300110,654.757874 512.657043,655.511108 
	C531.647888,656.033936 550.788757,653.184448 569.782349,651.107727 
	C610.791504,646.623962 650.630310,637.034973 689.111816,622.083984 
	C731.437378,605.639404 769.999268,583.036438 803.049438,551.592773 
	C840.292664,516.159912 866.233032,474.173706 877.100708,422.601807 
z"/>
<path fill="#FED84F" opacity="1.000000" stroke="none" 
	d="
M877.051819,423.024841 
	C866.233032,474.173706 840.292664,516.159912 803.049438,551.592773 
	C769.999268,583.036438 731.437378,605.639404 689.111816,622.083984 
	C650.630310,637.034973 610.791504,646.623962 569.782349,651.107727 
	C550.788757,653.184448 531.647888,656.033936 512.657043,655.511108 
	C485.300110,654.757874 457.910950,652.109802 430.734131,648.691406 
	C399.858582,644.807678 369.685669,637.168701 340.178528,627.134155 
	C299.199402,613.198303 260.907990,594.125977 227.024887,566.930969 
	C183.072983,531.654480 151.165863,488.128510 137.830170,432.604767 
	C124.306931,376.300140 133.095612,322.882721 161.046783,272.572083 
	C188.299973,223.517776 228.610260,187.762695 277.267090,160.902481 
	C320.983398,136.769638 367.873779,121.623642 417.061493,114.106560 
	C443.960724,109.995705 471.150726,107.210106 498.314545,105.624191 
	C514.641296,104.670982 531.282227,106.284485 547.581909,108.334679 
	C572.775269,111.503532 598.020264,114.975975 622.845520,120.207481 
	C673.902344,130.966858 722.042358,149.491913 765.536987,178.847794 
	C806.172852,206.274155 839.048279,240.733063 860.267700,285.453094 
	C873.268127,312.851440 880.454773,341.655304 881.274475,372.061005 
	C881.733704,389.092224 880.575439,405.926636 877.051819,423.024841 
M494.287201,283.223938 
	C485.025726,264.424591 475.695190,245.658630 466.570740,226.792984 
	C465.049561,223.647842 463.167358,222.600143 459.717804,222.567245 
	C425.231201,222.238373 390.744751,221.849869 356.418610,226.038849 
	C341.216736,227.893997 325.965912,229.892700 311.791046,236.115479 
	C257.716156,259.854401 236.316895,313.461884 243.745056,365.321777 
	C247.727325,393.124084 260.939850,417.376862 278.528503,438.963348 
	C305.849792,472.494598 339.314453,498.078156 379.795959,513.889465 
	C393.492310,519.239014 407.518433,523.744202 421.393860,528.635254 
	C421.649170,528.206421 421.904480,527.777527 422.159790,527.348694 
	C417.215424,516.875549 411.982269,506.525696 407.436737,495.882233 
	C404.777039,489.654480 400.915863,485.394135 395.061462,481.793182 
	C374.785461,469.321838 359.340759,452.476868 351.687439,429.458191 
	C342.374451,401.447906 356.068268,370.885498 389.092712,364.881897 
	C396.601776,363.516785 404.245575,362.168427 411.837799,362.107361 
	C450.161682,361.799255 488.489044,361.919159 526.815186,361.889191 
	C528.528809,361.887848 530.242493,361.889008 532.734680,361.889008 
	C519.730103,335.227814 507.204193,309.548004 494.287201,283.223938 
M499.285431,536.801147 
	C510.356659,535.513977 521.532104,534.800842 532.476440,532.814636 
	C552.427979,529.193787 571.553345,523.033752 588.164856,510.821198 
	C613.175232,492.433929 621.534241,465.382660 611.364136,436.128204 
	C609.541382,430.885071 607.704285,425.646942 605.824280,420.264740 
	C616.058044,419.645569 616.068420,419.640411 620.269653,428.066986 
	C637.264099,462.153229 654.277649,496.229919 671.195496,530.354126 
	C672.669189,533.326599 674.271606,534.779297 677.927734,534.751465 
	C705.923401,534.538513 733.921143,534.593750 761.918213,534.553589 
	C763.188171,534.551758 764.458008,534.434265 766.273315,534.343262 
	C765.388428,532.369995 764.782837,530.887878 764.073547,529.457031 
	C741.026245,482.961395 717.922852,436.493317 695.008972,389.932007 
	C693.349121,386.559113 691.276062,386.052155 688.016357,386.055847 
	C600.024597,386.156006 512.032776,386.176025 424.040924,386.209442 
	C421.774841,386.210297 419.508728,386.209534 416.234467,386.209534 
	C421.046997,396.706573 425.379211,406.347565 429.974091,415.861755 
	C430.402039,416.747894 432.474030,417.154083 433.815857,417.235321 
	C444.955566,417.909973 456.100098,418.521088 467.248993,419.023041 
	C479.787598,419.587524 491.094055,423.382263 500.725769,431.580811 
	C512.740723,441.808075 517.422058,457.246460 512.296936,470.668854 
	C507.227783,483.944519 496.989197,491.802368 483.818024,495.928772 
	C469.505341,500.412811 454.868378,499.906769 440.292084,497.404266 
	C431.987762,495.978516 423.784912,493.961670 415.060944,492.110077 
	C420.597778,503.891541 426.093384,515.234497 431.230652,526.737488 
	C432.705719,530.040344 434.798340,531.420776 438.183228,532.012512 
	C458.087494,535.492126 478.096588,537.509766 499.285431,536.801147 
M724.149292,323.341614 
	C708.145752,291.344299 692.096069,259.369812 676.209167,227.314713 
	C674.607300,224.082596 672.869690,222.677048 669.085449,222.698013 
	C639.277588,222.863174 609.468384,222.785568 579.659607,222.802994 
	C578.248779,222.803818 576.838074,222.996445 574.886963,223.139297 
	C575.960510,225.430054 576.759705,227.217392 577.625854,228.971695 
	C598.765564,271.789917 619.958923,314.581848 640.966797,357.464630 
	C642.588684,360.775269 644.271973,362.035156 648.016479,362.014557 
	C677.990906,361.849487 707.966614,361.926819 737.941956,361.909668 
	C739.503540,361.908783 741.065002,361.723755 743.268066,361.583679 
	C736.806519,348.642944 730.654053,336.321045 724.149292,323.341614 
M504.808624,281.680481 
	C517.445496,306.989532 530.150574,332.265015 542.637634,357.647766 
	C544.299683,361.026215 546.304504,362.034485 549.931458,362.003448 
	C569.751404,361.833710 589.573486,361.922577 609.394836,361.922577 
	C614.670288,361.922577 619.945679,361.922607 625.767639,361.922607 
	C624.963074,360.028473 624.469910,358.653748 623.816406,357.360046 
	C601.829224,313.834900 579.789124,270.336365 557.903564,226.760254 
	C556.281921,223.531464 554.288391,222.703156 550.913940,222.722061 
	C527.928589,222.850845 504.942139,222.784531 481.956055,222.800354 
	C480.359955,222.801453 478.764008,222.957184 476.113739,223.096375 
	C485.803833,242.906143 495.127136,261.966095 504.808624,281.680481 
M470.450073,116.603180 
	C467.594818,116.828468 464.354797,116.274376 461.969696,117.451935 
	C457.841644,119.490036 454.139465,122.465752 450.447449,125.294586 
	C444.796387,129.624390 444.997345,131.692032 451.407806,136.409225 
	C452.823944,135.114014 454.117432,133.475342 455.800964,132.535278 
	C457.148438,131.782898 459.504089,131.078781 460.489838,131.736252 
	C465.072998,134.793106 469.335175,138.331299 474.624176,142.398560 
	C446.984406,146.238403 421.071442,149.838364 394.534271,153.525024 
	C395.311462,157.030975 395.792572,159.201218 396.286285,161.428543 
	C409.225006,159.324371 421.741241,157.288895 434.357727,155.237137 
	C434.755951,157.953583 434.966919,159.392822 435.165833,160.749710 
	C443.571655,162.559067 445.618011,164.387909 446.431793,170.661469 
	C447.908203,182.043457 437.398041,192.109131 426.211334,190.018204 
	C422.110626,189.251740 419.502777,186.628021 419.225403,182.662903 
	C419.090424,180.733063 420.373688,177.975143 421.923279,176.894318 
	C423.095673,176.076584 425.934906,176.888321 427.617523,177.768204 
	C429.436768,178.719543 430.774170,180.592316 432.369202,182.108292 
	C436.174988,175.250214 436.237152,171.788300 432.732971,168.970139 
	C424.916565,162.683899 411.144257,164.255615 405.272339,172.103928 
	C398.700684,180.887512 400.665710,191.650879 410.303619,198.013123 
	C420.910278,205.014862 432.092773,204.634491 443.073486,199.167068 
	C454.525269,193.465118 462.075348,184.400879 462.857513,171.235046 
	C463.206268,165.364182 461.849243,159.391983 461.231232,153.108246 
	C465.738739,153.108246 470.441711,153.108246 475.584015,153.108246 
	C476.152191,171.216095 476.708130,188.933289 477.262482,206.600220 
	C483.993317,206.600220 490.095032,206.600220 496.871033,206.600220 
	C496.871033,187.754608 496.871033,169.196335 496.871033,149.726242 
	C527.381531,151.241409 557.286804,150.935806 586.982727,157.535263 
	C586.755493,160.387161 586.567200,162.750458 586.378296,165.120865 
	C570.969360,163.392456 570.969360,163.392456 561.077148,168.865829 
	C546.134766,159.183807 546.134766,159.183807 538.443481,158.386566 
	C522.509277,156.734924 509.068726,167.511765 508.690582,182.242920 
	C508.314636,196.888046 520.018311,207.759613 535.213562,206.880173 
	C546.190613,206.244858 547.550842,204.645721 546.619507,193.741974 
	C542.424500,194.323639 538.103394,195.793976 534.039795,195.269501 
	C528.754333,194.587387 525.400452,188.144714 525.941711,181.984406 
	C526.430908,176.415985 531.601074,171.419434 537.594360,170.722977 
	C542.880310,170.108734 547.505371,173.085510 549.117737,178.884613 
	C550.035461,182.185394 549.687622,185.821335 550.386047,189.208115 
	C550.663940,190.555603 552.159180,192.600739 553.218994,192.676987 
	C558.291199,193.041916 563.404114,192.840714 568.656006,192.840714 
	C568.883850,190.416687 568.991089,188.436752 569.267639,186.480743 
	C570.366699,178.706955 573.539673,174.964584 578.388733,175.629913 
	C583.515015,176.333252 585.357727,180.136124 584.739868,188.198639 
	C584.274536,194.271027 584.031982,200.360504 583.670410,206.796295 
	C588.955627,206.796295 593.419495,206.708984 597.877930,206.826996 
	C600.852295,206.905731 601.840149,205.673447 602.026733,202.708176 
	C602.549622,194.400467 603.385681,186.111084 604.179565,177.822250 
	C604.728210,172.093719 605.412170,166.378128 606.038818,160.627670 
	C608.189575,160.779526 609.681702,160.925201 611.177185,160.978989 
	C612.638672,161.031586 614.103577,160.990417 615.754272,160.990417 
	C616.280151,158.768799 616.755981,156.758575 617.407776,154.004715 
	C578.197632,145.555954 539.103577,141.843414 499.293884,141.814346 
	C499.615936,139.836563 499.776947,138.882660 499.925964,137.926895 
	C500.730042,132.769318 500.281891,132.548279 495.138977,133.237488 
	C493.329773,133.479935 490.958801,132.728516 489.469604,131.603348 
	C483.234528,126.892433 477.236755,121.867401 470.450073,116.603180 
M423.844391,629.846558 
	C442.585327,630.414551 454.991730,619.429993 456.870941,600.168457 
	C446.743774,598.327515 436.583496,596.480591 426.339722,594.618408 
	C425.534821,599.079834 424.892242,602.641602 424.211334,606.415894 
	C428.441772,607.352112 432.380798,608.223877 436.496094,609.134583 
	C434.934021,614.263916 431.618591,616.489868 427.152802,616.887512 
	C421.272644,617.411133 416.332336,615.394714 412.880341,610.416077 
	C406.963989,601.883240 409.828766,587.499390 418.711487,582.066650 
	C420.745087,580.822937 423.341980,580.044067 425.726776,579.913757 
	C433.781250,579.473633 438.190613,584.210632 440.416656,591.596497 
	C445.727936,590.477600 450.711487,589.427734 455.689117,588.379089 
	C454.400360,581.980408 451.648346,577.358215 446.939789,573.427612 
	C436.353668,564.590576 418.135132,563.717834 406.671234,571.498596 
	C395.740417,578.917480 390.397400,595.246643 394.759399,608.475403 
	C399.225189,622.019104 409.751953,627.702942 423.844391,629.846558 
M480.288239,625.116699 
	C485.607422,625.333740 490.941193,625.889587 496.241272,625.661987 
	C500.587769,625.475403 502.319794,627.232849 503.319885,631.229004 
	C503.822632,633.238037 505.709625,636.136230 507.327301,636.393982 
	C511.796814,637.106262 516.454041,636.640442 521.397156,636.640442 
	C520.804871,634.535706 520.337769,632.618896 519.727722,630.748779 
	C515.139832,616.684082 510.514343,602.631653 505.919342,588.569275 
	C501.882477,576.215088 501.889282,576.331970 488.680969,575.907166 
	C485.478363,575.804077 484.068054,576.853760 482.804352,579.708496 
	C475.401794,596.431274 467.768829,613.052002 460.239044,629.718750 
	C459.668396,630.981812 459.295288,632.334229 458.731689,633.923340 
	C460.770508,634.092468 462.252106,634.214478 463.733521,634.338440 
	C474.735901,635.259155 474.735870,635.259338 480.288239,625.116699 
M579.792114,581.728088 
	C579.102966,578.001648 578.413818,574.275146 577.665222,570.226990 
	C572.327698,571.147766 567.345337,572.007324 562.100769,572.912109 
	C565.436523,592.752502 568.674072,612.009155 571.969971,631.612610 
	C587.895508,628.915710 603.046082,626.350098 618.430908,623.744812 
	C617.682312,619.131104 617.047852,615.220581 616.332581,610.811951 
	C605.917114,612.528931 595.829346,614.191895 585.424805,615.907043 
	C583.544739,604.540894 581.729065,593.564331 579.792114,581.728088 
M533.155945,617.376831 
	C533.724060,623.236816 534.292175,629.096863 534.894165,635.306519 
	C540.477539,634.784058 545.369568,634.326355 550.588745,633.837952 
	C548.895813,613.947144 547.241272,594.507263 545.551147,574.649170 
	C540.094971,575.095825 535.188110,575.497559 529.765076,575.941528 
	C530.896240,589.716309 531.993896,603.083618 533.155945,617.376831 
z"/>
<path fill="#232424" opacity="1.000000" stroke="none" 
	d="
M494.482727,283.546051 
	C507.204193,309.548004 519.730103,335.227814 532.734680,361.889008 
	C530.242493,361.889008 528.528809,361.887848 526.815186,361.889191 
	C488.489044,361.919159 450.161682,361.799255 411.837799,362.107361 
	C404.245575,362.168427 396.601776,363.516785 389.092712,364.881897 
	C356.068268,370.885498 342.374451,401.447906 351.687439,429.458191 
	C359.340759,452.476868 374.785461,469.321838 395.061462,481.793182 
	C400.915863,485.394135 404.777039,489.654480 407.436737,495.882233 
	C411.982269,506.525696 417.215424,516.875549 422.159790,527.348694 
	C421.904480,527.777527 421.649170,528.206421 421.393860,528.635254 
	C407.518433,523.744202 393.492310,519.239014 379.795959,513.889465 
	C339.314453,498.078156 305.849792,472.494598 278.528503,438.963348 
	C260.939850,417.376862 247.727325,393.124084 243.745056,365.321777 
	C236.316895,313.461884 257.716156,259.854401 311.791046,236.115479 
	C325.965912,229.892700 341.216736,227.893997 356.418610,226.038849 
	C390.744751,221.849869 425.231201,222.238373 459.717804,222.567245 
	C463.167358,222.600143 465.049561,223.647842 466.570740,226.792984 
	C475.695190,245.658630 485.025726,264.424591 494.482727,283.546051 
z"/>
<path fill="#232424" opacity="1.000000" stroke="none" 
	d="
M498.806702,536.824341 
	C478.096588,537.509766 458.087494,535.492126 438.183228,532.012512 
	C434.798340,531.420776 432.705719,530.040344 431.230652,526.737488 
	C426.093384,515.234497 420.597778,503.891541 415.060944,492.110077 
	C423.784912,493.961670 431.987762,495.978516 440.292084,497.404266 
	C454.868378,499.906769 469.505341,500.412811 483.818024,495.928772 
	C496.989197,491.802368 507.227783,483.944519 512.296936,470.668854 
	C517.422058,457.246460 512.740723,441.808075 500.725769,431.580811 
	C491.094055,423.382263 479.787598,419.587524 467.248993,419.023041 
	C456.100098,418.521088 444.955566,417.909973 433.815857,417.235321 
	C432.474030,417.154083 430.402039,416.747894 429.974091,415.861755 
	C425.379211,406.347565 421.046997,396.706573 416.234467,386.209534 
	C419.508728,386.209534 421.774841,386.210297 424.040924,386.209442 
	C512.032776,386.176025 600.024597,386.156006 688.016357,386.055847 
	C691.276062,386.052155 693.349121,386.559113 695.008972,389.932007 
	C717.922852,436.493317 741.026245,482.961395 764.073547,529.457031 
	C764.782837,530.887878 765.388428,532.369995 766.273315,534.343262 
	C764.458008,534.434265 763.188171,534.551758 761.918213,534.553589 
	C733.921143,534.593750 705.923401,534.538513 677.927734,534.751465 
	C674.271606,534.779297 672.669189,533.326599 671.195496,530.354126 
	C654.277649,496.229919 637.264099,462.153229 620.269653,428.066986 
	C616.068420,419.640411 616.058044,419.645569 605.824280,420.264740 
	C607.704285,425.646942 609.541382,430.885071 611.364136,436.128204 
	C621.534241,465.382660 613.175232,492.433929 588.164856,510.821198 
	C571.553345,523.033752 552.427979,529.193787 532.476440,532.814636 
	C521.532104,534.800842 510.356659,535.513977 498.806702,536.824341 
z"/>
<path fill="#E63846" opacity="1.000000" stroke="none" 
	d="
M724.325439,323.670380 
	C730.654053,336.321045 736.806519,348.642944 743.268066,361.583679 
	C741.065002,361.723755 739.503540,361.908783 737.941956,361.909668 
	C707.966614,361.926819 677.990906,361.849487 648.016479,362.014557 
	C644.271973,362.035156 642.588684,360.775269 640.966797,357.464630 
	C619.958923,314.581848 598.765564,271.789917 577.625854,228.971695 
	C576.759705,227.217392 575.960510,225.430054 574.886963,223.139297 
	C576.838074,222.996445 578.248779,222.803818 579.659607,222.802994 
	C609.468384,222.785568 639.277588,222.863174 669.085449,222.698013 
	C672.869690,222.677048 674.607300,224.082596 676.209167,227.314713 
	C692.096069,259.369812 708.145752,291.344299 724.325439,323.670380 
z"/>
<path fill="#E63846" opacity="1.000000" stroke="none" 
	d="
M504.629517,281.353271 
	C495.127136,261.966095 485.803833,242.906143 476.113739,223.096375 
	C478.764008,222.957184 480.359955,222.801453 481.956055,222.800354 
	C504.942139,222.784531 527.928589,222.850845 550.913940,222.722061 
	C554.288391,222.703156 556.281921,223.531464 557.903564,226.760254 
	C579.789124,270.336365 601.829224,313.834900 623.816406,357.360046 
	C624.469910,358.653748 624.963074,360.028473 625.767639,361.922607 
	C619.945679,361.922607 614.670288,361.922577 609.394836,361.922577 
	C589.573486,361.922577 569.751404,361.833710 549.931458,362.003448 
	C546.304504,362.034485 544.299683,361.026215 542.637634,357.647766 
	C530.150574,332.265015 517.445496,306.989532 504.629517,281.353271 
z"/>
<path fill="#262725" opacity="1.000000" stroke="none" 
	d="
M470.801086,116.780319 
	C477.236755,121.867401 483.234528,126.892433 489.469604,131.603348 
	C490.958801,132.728516 493.329773,133.479935 495.138977,133.237488 
	C500.281891,132.548279 500.730042,132.769318 499.925964,137.926895 
	C499.776947,138.882660 499.615936,139.836563 499.293884,141.814346 
	C539.103577,141.843414 578.197632,145.555954 617.407776,154.004715 
	C616.755981,156.758575 616.280151,158.768799 615.754272,160.990417 
	C614.103577,160.990417 612.638672,161.031586 611.177185,160.978989 
	C609.681702,160.925201 608.189575,160.779526 606.038818,160.627670 
	C605.412170,166.378128 604.728210,172.093719 604.179565,177.822250 
	C603.385681,186.111084 602.549622,194.400467 602.026733,202.708176 
	C601.840149,205.673447 600.852295,206.905731 597.877930,206.826996 
	C593.419495,206.708984 588.955627,206.796295 583.670410,206.796295 
	C584.031982,200.360504 584.274536,194.271027 584.739868,188.198639 
	C585.357727,180.136124 583.515015,176.333252 578.388733,175.629913 
	C573.539673,174.964584 570.366699,178.706955 569.267639,186.480743 
	C568.991089,188.436752 568.883850,190.416687 568.656006,192.840714 
	C563.404114,192.840714 558.291199,193.041916 553.218994,192.676987 
	C552.159180,192.600739 550.663940,190.555603 550.386047,189.208115 
	C549.687622,185.821335 550.035461,182.185394 549.117737,178.884613 
	C547.505371,173.085510 542.880310,170.108734 537.594360,170.722977 
	C531.601074,171.419434 526.430908,176.415985 525.941711,181.984406 
	C525.400452,188.144714 528.754333,194.587387 534.039795,195.269501 
	C538.103394,195.793976 542.424500,194.323639 546.619507,193.741974 
	C547.550842,204.645721 546.190613,206.244858 535.213562,206.880173 
	C520.018311,207.759613 508.314636,196.888046 508.690582,182.242920 
	C509.068726,167.511765 522.509277,156.734924 538.443481,158.386566 
	C546.134766,159.183807 546.134766,159.183807 561.077148,168.865829 
	C570.969360,163.392456 570.969360,163.392456 586.378296,165.120865 
	C586.567200,162.750458 586.755493,160.387161 586.982727,157.535263 
	C557.286804,150.935806 527.381531,151.241409 496.871033,149.726242 
	C496.871033,169.196335 496.871033,187.754608 496.871033,206.600220 
	C490.095032,206.600220 483.993317,206.600220 477.262482,206.600220 
	C476.708130,188.933289 476.152191,171.216095 475.584015,153.108246 
	C470.441711,153.108246 465.738739,153.108246 461.231232,153.108246 
	C461.849243,159.391983 463.206268,165.364182 462.857513,171.235046 
	C462.075348,184.400879 454.525269,193.465118 443.073486,199.167068 
	C432.092773,204.634491 420.910278,205.014862 410.303619,198.013123 
	C400.665710,191.650879 398.700684,180.887512 405.272339,172.103928 
	C411.144257,164.255615 424.916565,162.683899 432.732971,168.970139 
	C436.237152,171.788300 436.174988,175.250214 432.369202,182.108292 
	C430.774170,180.592316 429.436768,178.719543 427.617523,177.768204 
	C425.934906,176.888321 423.095673,176.076584 421.923279,176.894318 
	C420.373688,177.975143 419.090424,180.733063 419.225403,182.662903 
	C419.502777,186.628021 422.110626,189.251740 426.211334,190.018204 
	C437.398041,192.109131 447.908203,182.043457 446.431793,170.661469 
	C445.618011,164.387909 443.571655,162.559067 435.165833,160.749710 
	C434.966919,159.392822 434.755951,157.953583 434.357727,155.237137 
	C421.741241,157.288895 409.225006,159.324371 396.286285,161.428543 
	C395.792572,159.201218 395.311462,157.030975 394.534271,153.525024 
	C421.071442,149.838364 446.984406,146.238403 474.624176,142.398560 
	C469.335175,138.331299 465.072998,134.793106 460.489838,131.736252 
	C459.504089,131.078781 457.148438,131.782898 455.800964,132.535278 
	C454.117432,133.475342 452.823944,135.114014 451.407806,136.409225 
	C444.997345,131.692032 444.796387,129.624390 450.447449,125.294586 
	C454.139465,122.465752 457.841644,119.490036 461.969696,117.451935 
	C464.354797,116.274376 467.594818,116.828468 470.801086,116.780319 
z"/>
<path fill="#272725" opacity="1.000000" stroke="none" 
	d="
M423.401550,629.798340 
	C409.751953,627.702942 399.225189,622.019104 394.759399,608.475403 
	C390.397400,595.246643 395.740417,578.917480 406.671234,571.498596 
	C418.135132,563.717834 436.353668,564.590576 446.939789,573.427612 
	C451.648346,577.358215 454.400360,581.980408 455.689117,588.379089 
	C450.711487,589.427734 445.727936,590.477600 440.416656,591.596497 
	C438.190613,584.210632 433.781250,579.473633 425.726776,579.913757 
	C423.341980,580.044067 420.745087,580.822937 418.711487,582.066650 
	C409.828766,587.499390 406.963989,601.883240 412.880341,610.416077 
	C416.332336,615.394714 421.272644,617.411133 427.152802,616.887512 
	C431.618591,616.489868 434.934021,614.263916 436.496094,609.134583 
	C432.380798,608.223877 428.441772,607.352112 424.211334,606.415894 
	C424.892242,602.641602 425.534821,599.079834 426.339722,594.618408 
	C436.583496,596.480591 446.743774,598.327515 456.870941,600.168457 
	C454.991730,619.429993 442.585327,630.414551 423.401550,629.798340 
z"/>
<path fill="#262625" opacity="1.000000" stroke="none" 
	d="
M479.944153,625.358276 
	C474.735870,635.259338 474.735901,635.259155 463.733521,634.338440 
	C462.252106,634.214478 460.770508,634.092468 458.731689,633.923340 
	C459.295288,632.334229 459.668396,630.981812 460.239044,629.718750 
	C467.768829,613.052002 475.401794,596.431274 482.804352,579.708496 
	C484.068054,576.853760 485.478363,575.804077 488.680969,575.907166 
	C501.889282,576.331970 501.882477,576.215088 505.919342,588.569275 
	C510.514343,602.631653 515.139832,616.684082 519.727722,630.748779 
	C520.337769,632.618896 520.804871,634.535706 521.397156,636.640442 
	C516.454041,636.640442 511.796814,637.106262 507.327301,636.393982 
	C505.709625,636.136230 503.822632,633.238037 503.319885,631.229004 
	C502.319794,627.232849 500.587769,625.475403 496.241272,625.661987 
	C490.941193,625.889587 485.607422,625.333740 479.944153,625.358276 
M487.577209,613.249023 
	C490.826172,613.458740 494.075165,613.668457 497.840607,613.911499 
	C495.996796,607.447510 494.329987,601.604004 492.304749,594.504028 
	C489.704559,600.962097 487.579315,606.131470 485.604858,611.357727 
	C485.451447,611.763855 486.355225,612.569336 487.577209,613.249023 
z"/>
<path fill="#262625" opacity="1.000000" stroke="none" 
	d="
M579.852783,582.157959 
	C581.729065,593.564331 583.544739,604.540894 585.424805,615.907043 
	C595.829346,614.191895 605.917114,612.528931 616.332581,610.811951 
	C617.047852,615.220581 617.682312,619.131104 618.430908,623.744812 
	C603.046082,626.350098 587.895508,628.915710 571.969971,631.612610 
	C568.674072,612.009155 565.436523,592.752502 562.100769,572.912109 
	C567.345337,572.007324 572.327698,571.147766 577.665222,570.226990 
	C578.413818,574.275146 579.102966,578.001648 579.852783,582.157959 
z"/>
<path fill="#262625" opacity="1.000000" stroke="none" 
	d="
M533.123779,616.913940 
	C531.993896,603.083618 530.896240,589.716309 529.765076,575.941528 
	C535.188110,575.497559 540.094971,575.095825 545.551147,574.649170 
	C547.241272,594.507263 548.895813,613.947144 550.588745,633.837952 
	C545.369568,634.326355 540.477539,634.784058 534.894165,635.306519 
	C534.292175,629.096863 533.724060,623.236816 533.123779,616.913940 
z"/>
<path fill="#F1CD4C" opacity="1.000000" stroke="none" 
	d="
M487.172424,613.219116 
	C486.355225,612.569336 485.451447,611.763855 485.604858,611.357727 
	C487.579315,606.131470 489.704559,600.962097 492.304749,594.504028 
	C494.329987,601.604004 495.996796,607.447510 497.840607,613.911499 
	C494.075165,613.668457 490.826172,613.458740 487.172424,613.219116 
z"/>
</svg>